<svg version="1.2" xmlns="http://www.w3.org/2000/svg" viewBox="0 0 650 650" width="650" height="650"><style></style><path fill="white" fill-rule="evenodd" d="m264.5 62.4l131 0.1 4.7 2.3c6.1 3.1 110.5 108.6 114 115.3l2.3 4.4 0.3 121.5 0.2 121.5-15.5 15.5-15.5 15.5v-127c0-121.8-0.1-127.2-1.9-130.5-1.1-2-3.6-4.4-6.1-5.7-4.3-2.3-4.7-2.3-43.4-2.3-37.2 0-39.3-0.1-43.6-2.1-2.5-1.1-6-3.5-7.8-5.2-6.9-6.6-6.6-5-7.2-50.2l-0.5-41h-247l-5.1 2.7c-2.8 1.5-7 4.8-9.2 7.3-7.8 8.9-7.2-11.5-7.2 230.5 0 242-0.6 221.6 7.2 230.5 2.2 2.5 6.4 5.8 9.2 7.3l5.1 2.7 130.5 0.6 0.5-330.6h60.5c63.4 0 64.2 0 79 4.6 28.8 9 49.7 30.9 57 59.9 4.3 17.2 3.5 41.5-1.9 57.3-8.5 24.6-27.5 43.6-51.4 51.2-3.7 1.2-6.9 2.5-7 2.8-0.1 0.3 3.4 5 7.8 10.4 4.5 5.4 17.5 21.4 28.9 35.7l20.9 25.8-13.9 13.9c-7.6 7.7-14.1 13.8-14.5 13.7-2.3-1-45.4-49.4-73.4-82.6l-12-14.2-15.8 0.3-15.9 0.2-0.1 91.5-0.2 91.5-86 0.3c-56.3 0.2-88.4-0.1-92.9-0.8-15.3-2.3-27.2-8.5-37.1-19.2-6.1-6.6-12.7-19.1-14.4-27.6-0.8-3.7-1.1-70.5-1.1-225.5 0-244.2-0.5-224.9 6.7-239.7 4.1-8.5 14.5-19.8 22.5-24.4 6.3-3.7 15-6.6 22.3-7.5 3.3-0.4 65-0.7 137-0.7zm-70.8 89.8c16.2 6 24.1 26.2 16.4 42.3-9.5 20.2-36 24.2-51.1 7.9-5.9-6.5-8.3-12.4-8.4-21 0-6 0.4-8 3.2-13.7 3.8-7.7 9.2-12.8 16.6-15.6 7-2.7 16-2.7 23.3 0.1zm5.7 72.3c15.5 4 26.7 15.4 28.3 28.6l0.6 4.9h-92.6l0.7-5.1c2.1-15.4 15.4-26.9 35-30 6.7-1 21-0.2 28 1.6zm-15.6 64.8l39.4 0.2 2.4 2.8c3.5 4.1 3.4 10.9-0.2 14.2l-2.7 2.5h-80.6l-2.8-2.4c-2.3-2-2.8-3.2-2.8-6.9 0-4.7 2.1-8.1 6-9.8 1.1-0.4 19.7-0.7 41.3-0.6zm157.5 0.9c-18.3-0.2-33.3 0-33.4 0.5 0 0.4 0 20.6 0 44.8l0.1 44 30.8 0.3c24.8 0.2 32 0 37.7-1.3 13.2-2.9 22.9-10.8 28.8-23.3 2.7-5.7 3.1-7.9 3.5-17.3 0.4-8.9 0.1-11.9-1.7-17.7-3.8-12.7-14.6-23.6-27.5-27.9-4.3-1.4-10.3-1.8-38.4-2.1zm-199.1 46.8h80.6l2.7 2.6c3.5 3.6 3.6 10.1 0.2 14.1l-2.4 2.8h-81.2l-2.7-2.8c-2.2-2.2-2.8-3.7-2.8-7.3 0-3.8 0.5-5 2.8-7zm476.9 62.1c2.1 7.7 0.7 9.9-23.7 38.2-12.4 14.4-32.4 37.9-44.6 52.2-12.1 14.3-25.7 30.3-30.2 35.5-4.5 5.2-20.2 23.7-35 41-14.8 17.3-30.7 36-35.4 41.4-9.5 11.2-13.4 13.6-22.1 13.6-10.2 0-11.4-1-46.3-40-32.2-35.9-33.7-37.9-33.7-45.4 0-8.6 8.3-16.6 17.3-16.6 6.6 0 8.4 0.9 21.8 11.6 20.6 16.3 39.2 30.5 39.8 30.2 0.9-0.4 36.7-37.2 84.1-86.3 62.4-64.7 82.1-84.5 85.5-86.1 9.4-4.2 19.8 0.8 22.5 10.7zm-9-9.7c0 0.2 1.2 1.2 2.6 2.1 1.5 0.9 2.3 1.2 2 0.6-0.8-1.1-4.6-3.5-4.6-2.7zm-303 268.6l11.7 0.2 11.8 0.3 0.3 71.3 0.2 71.3-11.7-0.3-11.8-0.3-0.3-6.3-0.3-6.3-5.5 5c-6.8 6.2-14.2 9.2-24.9 9.8-15.5 1-29.2-4.3-39.4-15.3-12.1-12.8-16.7-30.8-12.7-49.4 2.8-12.9 9.1-23 19.3-30.6 17.4-13.1 43.6-12.3 58.9 1.8l4.4 4.1zm-332.1 40.7l3.2 0.6-0.3 11.4-0.3 11.5-8.7 0.3c-14 0.4-22.2 5.6-26.5 16.8-1.4 3.5-1.7 9.5-2.1 33l-0.4 28.7h-22.8v-101h23l0.1 8.3c0 6.8 0.2 7.9 1.2 6.3 4.9-7.8 12.7-13.3 21.7-15.2 6.7-1.5 7.9-1.5 11.9-0.7zm100 13.5c9.2 9.3 14.1 22 14.1 37.2v8.6h-38.5c-38 0-38.5 0.1-38.5 2.1 0 2.9 4.4 11 7.7 14.1 11 10.5 32.8 9.8 42.8-1.3l3.5-3.9 9.5 4.8c5.2 2.6 9.5 5.2 9.5 5.9 0 2-9.7 12-15 15.3-8.4 5.4-15.9 7.3-29 7.4-17.5 0.1-28.4-4-39.3-15-10.7-10.7-15.3-23.8-14.4-40.4 0.8-14.4 4.6-23.6 13.5-33.2 6-6.5 13.1-10.7 22.1-13.4 18.9-5.6 39.2-1 52 11.8zm125.1 7.1c4.2 9.1 5.1 18.9 4.8 52.2l-0.3 29h-24l-0.5-33c-0.5-32.3-0.6-33-2.8-36.7-5-8-11.6-11.2-21.7-10.6-9 0.6-15 4.4-19 12.3l-3 5.9-0.3 31.3-0.4 31.3h-23.8v-101h24v13l4.4-4.4c5.1-5.1 8.5-7 15.8-9 19.5-5.3 39 3 46.8 19.7zm217.9-18.3c10.7 3.6 19.2 10.4 25.2 20 4.6 7.4 8.7 25.5 7.4 33.1l-0.7 3.9h-38.4c-43.7 0-40.6-0.7-35.8 8.8q6.6 13.3 23.7 14.9c9.4 0.9 16.6-1.5 23.2-7.7l5.2-5 9 4.4c5 2.5 9.4 5 9.8 5.6 1.1 1.8-13.3 15.3-19.5 18.4-11.2 5.4-24.4 6.8-37.8 4-24.2-4.9-41.3-25.8-41.2-50.3 0.1-25.5 15.2-45.6 38.8-51.6 8.1-2 22.9-1.3 31.1 1.5zm108.8-2.3c2.2 0.5 2.3 1 2.3 12.2v11.6h-8.3c-14.8 0-23.7 6.6-27.2 20.2-1.2 4.4-1.5 11.8-1.5 32.1v26.3l-11.8-0.3-11.7-0.3v-100l11.7-0.3 11.8-0.2v8.2c0.1 8.2 0.1 8.3 1.8 5.9 5.6-8.3 12.9-13.3 21.5-15 5.3-1.1 8.6-1.2 11.4-0.4zm81.5 1.7c11.6 3.6 24 13.1 28 21.6l1.6 3.4-10.1 4.3-10.2 4.3-3.9-4.6c-5.6-6.6-12.1-9.3-21.7-9.4-6.1 0-8.5 0.5-12.7 2.6-10.5 5.2-15.5 14.1-15.6 27.4 0 13.6 5.1 22.7 15.6 28 5 2.5 7.4 3 12.7 3 3.6 0 8.1-0.4 10-0.9 4.8-1.4 10.7-5.8 13.2-9.7l2-3.3 4.7 1.9c2.6 1 7.3 3 10.5 4.5l5.8 2.6-2.3 4.1c-3.6 6.5-13.9 15.3-21.4 18.3-12.1 4.8-25.6 5.5-38.4 1.9-17.4-4.9-30.5-18.3-35-35.8-7.9-31 10-60.1 40.5-65.6 6.3-1.1 21-0.3 26.7 1.4zm48.3-0.1l12.7 0.2 3 8.5c1.6 4.7 6.7 18.9 11.3 31.5 4.5 12.7 9.1 25.4 10.1 28.3 1 2.9 2.1 5.2 2.4 5.2 0.3 0 1.6-3.2 2.9-7.2 6-18.7 23.2-65.2 24.3-65.9 1.4-0.9 23.8-1.2 23.8-0.3 0 0.5-25.4 67.5-34 89.7l-4.2 10.7h-26.5l-7.3-19.2c-6.1-16.2-28.3-74.3-30.5-80-0.7-1.7 0.1-1.8 12-1.5zm-643 34.4c-2.8 6.7-4.3 6.4 25.2 6.1l26.8-0.3-0.4-2.5c-0.9-6.9-9-16-16-18-15.3-4.4-30.2 1.7-35.6 14.7zm365.1-6.5c-3.7 4.3-6.2 10.6-4.8 12.1 0.5 0.4 12.5 0.6 26.8 0.5l25.9-0.3-0.4-2.5c-0.9-6.4-7.8-14.7-14.5-17.5-11.1-4.6-25.3-1.3-33 7.7zm-100.1-7.9c-7.4-0.4-8.5-0.2-14.2 2.7-10.6 5.4-15.4 13-16.1 25.5-0.5 10.3 2.1 17.9 8.3 24.1 11.3 11.3 30.7 11.2 42.1-0.2 5.9-6 7.9-11.4 7.9-21.9 0-7.5-0.4-9.7-2.4-13.5-3-5.8-8.6-11.6-13.6-14.2-2.8-1.5-6.5-2.2-12-2.5z"/></svg>
